<svg xmlns="http://www.w3.org/2000/svg" viewBox="0 0 1400 960" fill="none">
  <defs>
    <linearGradient id="a" x1="160" x2="1280" y1="80" y2="900" gradientUnits="userSpaceOnUse">
      <stop stop-color="#1A1021" />
      <stop offset=".5" stop-color="#120E1A" />
      <stop offset="1" stop-color="#1B1116" />
    </linearGradient>
    <linearGradient id="b" x1="220" x2="1140" y1="240" y2="780" gradientUnits="userSpaceOnUse">
      <stop stop-color="#FF8E72" stop-opacity=".34" />
      <stop offset="1" stop-color="#FFD36C" stop-opacity=".28" />
    </linearGradient>
  </defs>

  <rect width="1400" height="960" rx="50" fill="url(#a)" />
  <rect x="86" y="82" width="1228" height="796" rx="42" fill="#110B16" fill-opacity=".74" stroke="url(#b)" />

  <rect x="130" y="126" width="114" height="36" rx="18" fill="#2C1A28" />
  <rect x="260" y="126" width="92" height="36" rx="18" fill="#2C1A28" />

  <rect x="130" y="220" width="520" height="580" rx="34" fill="#1B111B" stroke="white" stroke-opacity=".08" />
  <rect x="166" y="256" width="448" height="472" rx="28" fill="#302034" />
  <ellipse cx="392" cy="396" rx="182" ry="186" fill="#FF8E72" fill-opacity=".22" />
  <ellipse cx="392" cy="398" rx="120" ry="168" fill="#FFDCC9" fill-opacity=".56" />
  <ellipse cx="392" cy="334" rx="78" ry="92" fill="#1E1521" fill-opacity=".42" />
  <path d="M298 578c70-52 142-52 212 0" stroke="#1E1521" stroke-width="72" stroke-linecap="round" opacity=".5" />

  <rect x="700" y="220" width="570" height="224" rx="34" fill="#1A1118" stroke="white" stroke-opacity=".08" />
  <rect x="738" y="262" width="222" height="24" rx="12" fill="#F3EDE5" fill-opacity=".88" />
  <rect x="738" y="306" width="130" height="14" rx="7" fill="#F3EDE5" fill-opacity=".24" />
  <rect x="738" y="362" width="220" height="40" rx="20" fill="#FF8E72" fill-opacity=".26" />
  <rect x="1002" y="262" width="230" height="144" rx="28" fill="#2B1A25" />
  <rect x="1028" y="288" width="178" height="18" rx="9" fill="#F3EDE5" fill-opacity=".16" />
  <rect x="1028" y="324" width="126" height="18" rx="9" fill="#F3EDE5" fill-opacity=".12" />

  <rect x="700" y="482" width="274" height="318" rx="34" fill="#1A1118" stroke="white" stroke-opacity=".08" />
  <rect x="742" y="526" width="152" height="22" rx="11" fill="#F3EDE5" fill-opacity=".88" />
  <rect x="742" y="570" width="118" height="14" rx="7" fill="#F3EDE5" fill-opacity=".24" />
  <circle cx="834" cy="688" r="86" fill="#FF8E72" fill-opacity=".2" />
  <circle cx="834" cy="688" r="50" fill="#FF8E72" fill-opacity=".74" />

  <rect x="996" y="482" width="274" height="318" rx="34" fill="#1A1118" stroke="white" stroke-opacity=".08" />
  <path d="M1040 726c52-90 126-112 184-54 46 46 70 48 90 20" stroke="#FFD36C" stroke-width="12" stroke-linecap="round" />
  <path d="M1040 654h118" stroke="#F3EDE5" stroke-opacity=".86" stroke-width="18" stroke-linecap="round" />
</svg>
