<svg xmlns="http://www.w3.org/2000/svg" viewBox="0 0 1400 960" fill="none">
  <defs>
    <linearGradient id="a" x1="140" x2="1240" y1="96" y2="860" gradientUnits="userSpaceOnUse">
      <stop stop-color="#0E1324" />
      <stop offset="1" stop-color="#0B0F1A" />
    </linearGradient>
    <linearGradient id="b" x1="180" x2="1190" y1="160" y2="820" gradientUnits="userSpaceOnUse">
      <stop stop-color="#6EE7D8" stop-opacity=".32" />
      <stop offset=".5" stop-color="#FF8E72" stop-opacity=".3" />
      <stop offset="1" stop-color="#6EE7D8" stop-opacity=".18" />
    </linearGradient>
  </defs>

  <rect width="1400" height="960" rx="50" fill="url(#a)" />
  <rect x="90" y="86" width="1220" height="788" rx="42" fill="#08101D" fill-opacity=".78" stroke="url(#b)" />

  <rect x="132" y="126" width="176" height="42" rx="21" fill="#111B30" />
  <rect x="1140" y="124" width="124" height="44" rx="22" fill="#FF8E72" fill-opacity=".22" />

  <rect x="132" y="228" width="360" height="592" rx="36" fill="#0E1730" stroke="white" stroke-opacity=".08" />
  <rect x="164" y="260" width="296" height="328" rx="28" fill="#18223F" />
  <circle cx="312" cy="356" r="92" fill="#6EE7D8" fill-opacity=".22" />
  <path d="M222 518c64-66 118-66 182 0" stroke="#FF8E72" stroke-width="60" stroke-linecap="round" opacity=".62" />
  <rect x="164" y="624" width="296" height="162" rx="26" fill="#131E38" />
  <rect x="194" y="658" width="146" height="22" rx="11" fill="#F3EDE5" fill-opacity=".86" />
  <rect x="194" y="698" width="216" height="14" rx="7" fill="#F3EDE5" fill-opacity=".18" />

  <rect x="532" y="228" width="730" height="180" rx="36" fill="#0E1730" stroke="white" stroke-opacity=".08" />
  <rect x="568" y="270" width="232" height="24" rx="12" fill="#F3EDE5" fill-opacity=".88" />
  <rect x="568" y="314" width="126" height="14" rx="7" fill="#F3EDE5" fill-opacity=".24" />
  <rect x="930" y="264" width="286" height="104" rx="28" fill="#14203B" />
  <path d="M970 340c40-54 120-62 164-10 46 54 72 48 122-18" stroke="#6EE7D8" stroke-width="12" stroke-linecap="round" />

  <rect x="532" y="448" width="334" height="372" rx="36" fill="#0E1730" stroke="white" stroke-opacity=".08" />
  <rect x="566" y="486" width="164" height="24" rx="12" fill="#F3EDE5" fill-opacity=".88" />
  <rect x="566" y="530" width="124" height="14" rx="7" fill="#F3EDE5" fill-opacity=".24" />
  <rect x="566" y="586" width="266" height="198" rx="28" fill="#15213C" />

  <rect x="896" y="448" width="366" height="372" rx="36" fill="#0E1730" stroke="white" stroke-opacity=".08" />
  <rect x="932" y="486" width="158" height="24" rx="12" fill="#F3EDE5" fill-opacity=".88" />
  <rect x="932" y="530" width="208" height="14" rx="7" fill="#F3EDE5" fill-opacity=".24" />
  <circle cx="1078" cy="680" r="82" fill="#FF8E72" fill-opacity=".22" />
  <circle cx="1078" cy="680" r="48" fill="#FF8E72" fill-opacity=".72" />
  <path d="M988 760h180" stroke="#F3EDE5" stroke-opacity=".14" stroke-width="20" stroke-linecap="round" />
</svg>
