<svg xmlns="http://www.w3.org/2000/svg" viewBox="0 0 1400 960" fill="none">
  <defs>
    <linearGradient id="a" x1="160" x2="1240" y1="70" y2="900" gradientUnits="userSpaceOnUse">
      <stop stop-color="#081120" />
      <stop offset=".58" stop-color="#090E18" />
      <stop offset="1" stop-color="#14120D" />
    </linearGradient>
    <linearGradient id="b" x1="190" x2="1220" y1="110" y2="820" gradientUnits="userSpaceOnUse">
      <stop stop-color="#FFD36C" stop-opacity=".36" />
      <stop offset=".5" stop-color="#6EE7D8" stop-opacity=".24" />
      <stop offset="1" stop-color="#FFD36C" stop-opacity=".22" />
    </linearGradient>
  </defs>

  <rect width="1400" height="960" rx="50" fill="url(#a)" />
  <rect x="92" y="84" width="1216" height="792" rx="42" fill="#08101B" fill-opacity=".78" stroke="url(#b)" />

  <rect x="130" y="126" width="122" height="40" rx="20" fill="#121A29" />
  <rect x="1246" y="126" width="30" height="30" rx="15" fill="#FFD36C" fill-opacity=".9" />

  <rect x="130" y="220" width="1140" height="220" rx="34" fill="#0E182A" stroke="white" stroke-opacity=".08" />
  <rect x="174" y="262" width="210" height="26" rx="13" fill="#F3EDE5" fill-opacity=".9" />
  <rect x="174" y="306" width="132" height="14" rx="7" fill="#F3EDE5" fill-opacity=".22" />
  <path d="M450 366c84-98 220-132 340-64 114 64 222 74 408-52" stroke="#FFD36C" stroke-width="14" stroke-linecap="round" />
  <path d="M450 316c84 62 168 80 244 46 116-52 240-28 504 44" stroke="#6EE7D8" stroke-width="10" stroke-linecap="round" opacity=".86" />

  <rect x="130" y="476" width="356" height="344" rx="34" fill="#0E182A" stroke="white" stroke-opacity=".08" />
  <rect x="166" y="514" width="156" height="24" rx="12" fill="#F3EDE5" fill-opacity=".88" />
  <rect x="166" y="558" width="120" height="14" rx="7" fill="#F3EDE5" fill-opacity=".22" />
  <rect x="166" y="612" width="284" height="172" rx="28" fill="#15233B" />
  <path d="M206 744c40-58 98-70 146-26 36 34 64 34 98 0" stroke="#FFD36C" stroke-width="12" stroke-linecap="round" />

  <rect x="522" y="476" width="356" height="344" rx="34" fill="#0E182A" stroke="white" stroke-opacity=".08" />
  <rect x="558" y="514" width="156" height="24" rx="12" fill="#F3EDE5" fill-opacity=".88" />
  <rect x="558" y="558" width="214" height="14" rx="7" fill="#F3EDE5" fill-opacity=".22" />
  <circle cx="700" cy="690" r="90" fill="#6EE7D8" fill-opacity=".2" />
  <circle cx="700" cy="690" r="52" fill="#6EE7D8" fill-opacity=".76" />

  <rect x="914" y="476" width="356" height="344" rx="34" fill="#0E182A" stroke="white" stroke-opacity=".08" />
  <rect x="950" y="514" width="156" height="24" rx="12" fill="#F3EDE5" fill-opacity=".88" />
  <rect x="950" y="558" width="120" height="14" rx="7" fill="#F3EDE5" fill-opacity=".22" />
  <rect x="950" y="618" width="116" height="116" rx="26" fill="#1B2741" />
  <rect x="1092" y="618" width="142" height="30" rx="15" fill="#FFD36C" fill-opacity=".24" />
  <rect x="1092" y="670" width="118" height="18" rx="9" fill="#F3EDE5" fill-opacity=".12" />
  <rect x="1092" y="712" width="142" height="18" rx="9" fill="#F3EDE5" fill-opacity=".08" />
</svg>
